# xmcd
#
# Track frame offsets:
# 150
# 14072
# 26712
# 44155
# 57652
# 69907
# 84637
# 102420
# 114760
# 131160
# 149332
# 160952
# 170197
# 183642
# 200162
# 214427
# 228502
# 249062
# 260462
# 275407
# 287057
# 302470
# 315475
# 330832
#
# Disc length: 4499 seconds
#
#
# Revision: 0
# Processed by: cddbd v1.5.2PL0 Copyright (c) Steve Scherf et al.
# Submitted via: FreeRIP 2.951 
#
DISCID=6f119118
DTITLE=João Mineiro e Marciano - Os Inimitáveis (1975 e 1988)
DYEAR=1900
DGENRE=Sertanejo
TTITLE0=Menina dos meus momentos
TTITLE1=Meu último amor
TTITLE2=desilusão
TTITLE3=Cantor das Madrugadas
TTITLE4=Sefredo da aliança
TTITLE5=Retífica geral
TTITLE6=Amando em segredo
TTITLE7=Amor tem que ser assim
TTITLE8=Poltrona 36
TTITLE9=Quando canta o xororó
TTITLE10=Lição de amor
TTITLE11=Fatalidade
TTITLE12=Crises de amor
TTITLE13=Seu amor ainda é tudo
TTITLE14=Benza Deus
TTITLE15=Meu desespero (A Tabela)
TTITLE16=Por sentir ciúmes
TTITLE17=Esconda o que houver
TTITLE18=No mesmo lugar
TTITLE19=Whisky com gelo
TTITLE20=Caminhão é assim
TTITLE21=Pare com isso...
TTITLE22=Papel de amante
TTITLE23=Amantes e amigos
EXTD=
EXTT0=
EXTT1=
EXTT2=
EXTT3=
EXTT4=
EXTT5=
EXTT6=
EXTT7=
EXTT8=
EXTT9=
EXTT10=
EXTT11=
EXTT12=
EXTT13=
EXTT14=
EXTT15=
EXTT16=
EXTT17=
EXTT18=
EXTT19=
EXTT20=
EXTT21=
EXTT22=
EXTT23=
PLAYORDER=
